<?xml version="1.0" encoding="UTF-8" standalone="no"?><!DOCTYPE svg PUBLIC "-//W3C//DTD SVG 1.1//EN" "http://www.w3.org/Graphics/SVG/1.1/DTD/svg11.dtd"><svg width="100%" height="100%" viewBox="0 0 72 72" version="1.1" xmlns="http://www.w3.org/2000/svg" xmlns:xlink="http://www.w3.org/1999/xlink" xml:space="preserve" xmlns:serif="http://www.serif.com/" style="fill-rule:evenodd;clip-rule:evenodd;stroke-linejoin:round;stroke-miterlimit:1.5;"><g id="communication"><path d="M39.053,50.263c-0.241,0.169 -0.384,0.444 -0.384,0.737c0,0.293 0.143,0.568 0.384,0.737c4.528,3.17 22.357,15.65 27.532,19.272c0.275,0.193 0.634,0.216 0.931,0.061c0.297,-0.154 0.484,-0.462 0.484,-0.797c0,-6.808 0,-31.738 0,-38.546c0,-0.335 -0.187,-0.643 -0.484,-0.797c-0.297,-0.155 -0.656,-0.132 -0.931,0.061c-5.175,3.622 -23.004,16.102 -27.532,19.272Z" style="fill:#a5cce5;"/><path d="M72,2.541c0,-1.403 -1.138,-2.541 -2.541,-2.541l-66.918,0c-1.403,0 -2.541,1.138 -2.541,2.541l0,50.918c0,1.403 1.138,2.541 2.541,2.541l66.918,0c1.403,0 2.541,-1.138 2.541,-2.541l0,-50.918Z" style="fill:#a5cce5;"/><path d="M68,6.178c0,-1.202 -0.976,-2.178 -2.178,-2.178l-59.644,0c-1.202,0 -2.178,0.976 -2.178,2.178l0,43.644c0,1.202 0.976,2.178 2.178,2.178l59.644,0c1.202,0 2.178,-0.976 2.178,-2.178l0,-43.644Z" style="fill:#fff;"/><path d="M16.457,39.673l11.755,-13.224l16.164,8.816l11.755,-22.041" style="fill:none;stroke:#a3b74a;stroke-width:3px;"/></g></svg>