<?xml version="1.0" encoding="UTF-8" standalone="no"?><!DOCTYPE svg PUBLIC "-//W3C//DTD SVG 1.1//EN" "http://www.w3.org/Graphics/SVG/1.1/DTD/svg11.dtd"><svg width="100%" height="100%" viewBox="0 0 72 72" version="1.1" xmlns="http://www.w3.org/2000/svg" xmlns:xlink="http://www.w3.org/1999/xlink" xml:space="preserve" xmlns:serif="http://www.serif.com/" style="fill-rule:evenodd;clip-rule:evenodd;stroke-linecap:round;stroke-linejoin:round;stroke-miterlimit:1.5;"><g id="continued-learning" serif:id="continued learning"><g><ellipse cx="13" cy="60" rx="9" ry="12" style="fill:#a5cce5;"/><path d="M13,48l56,0l0,4l-4,0l0,16l4,0l0,4l-56,0l0,-24Z" style="fill:#a5cce5;"/><rect x="14.5" y="52" width="50.5" height="16" style="fill:#dedde1;"/><ellipse cx="14.5" cy="60" rx="6.5" ry="8" style="fill:#dedde1;"/><rect x="17" y="61" width="12" height="4" style="fill:#9e9fa3;"/><rect x="35" y="55" width="30" height="4" style="fill:#9e9fa3;"/></g><g><ellipse cx="9" cy="36" rx="9" ry="12" style="fill:#9e9fa3;"/><path d="M9,24l56,0l0,4l-4,0l0,16l4,0l0,4l-56,0l0,-24Z" style="fill:#9e9fa3;"/><rect x="10.5" y="28" width="50.5" height="16" style="fill:#dedde1;"/><ellipse cx="10.5" cy="36" rx="6.5" ry="8" style="fill:#dedde1;"/><rect x="13" y="37" width="12" height="4" style="fill:#9e9fa3;"/><rect x="31" y="31" width="30" height="4" style="fill:#9e9fa3;"/></g><g><ellipse cx="16" cy="12" rx="9" ry="12" style="fill:#a5cce5;"/><path d="M16,0l56,0l0,4l-4,0l0,16l4,0l0,4l-56,0l0,-24Z" style="fill:#a5cce5;"/><rect x="17.5" y="4" width="50.5" height="16" style="fill:#dedde1;"/><ellipse cx="17.5" cy="12" rx="6.5" ry="8" style="fill:#dedde1;"/><rect x="20" y="13" width="12" height="4" style="fill:#fefffe;"/><rect x="38" y="7" width="30" height="4" style="fill:#fefffe;"/></g></g><g><path d="M86,-14c0,0 30,0.667 34,-8c4,-8.667 -15,-35.593 -10,-44c5,-8.407 40,-6.44 40,-6.44" style="fill:none;stroke:#a3b74a;stroke-width:4px;"/></g></svg>