<?xml version="1.0" encoding="UTF-8" standalone="no"?>
<!DOCTYPE svg PUBLIC "-//W3C//DTD SVG 1.1//EN" "http://www.w3.org/Graphics/SVG/1.1/DTD/svg11.dtd">
<svg width="100%" height="100%" viewBox="0 0 48 48" version="1.1" xmlns="http://www.w3.org/2000/svg" xmlns:xlink="http://www.w3.org/1999/xlink" xml:space="preserve" xmlns:serif="http://www.serif.com/" style="fill-rule:evenodd;clip-rule:evenodd;stroke-linejoin:round;stroke-miterlimit:1.41421;">
    <g transform="matrix(1,0,0,1,-288,-56)">
        <g transform="matrix(1,0,0,1,2.61516e-17,-0.340004)">
            <g transform="matrix(1.23077,0,0,1,-67.6923,7)">
                <path d="M324.427,58.001L324.521,58.006L324.614,58.013L324.707,58.023L324.799,58.036L324.89,58.052L324.981,58.071L325.071,58.092L325.16,58.116L325.248,58.142L325.336,58.171L325.422,58.203L325.508,58.237L325.593,58.274L325.676,58.313L325.759,58.355L325.841,58.399L325.922,58.445L326.001,58.494L326.08,58.545L326.157,58.598L326.233,58.654L326.308,58.712L326.382,58.771L326.455,58.833L326.526,58.897L326.596,58.963L326.665,59.031L326.732,59.101L326.798,59.173L326.862,59.247L326.925,59.323L326.987,59.4L327.047,59.48L327.105,59.561L327.162,59.644L327.217,59.728L327.271,59.814L327.323,59.902L327.373,59.991L327.422,60.082L327.469,60.174L327.514,60.268L327.557,60.363L327.598,60.46L327.638,60.558L327.676,60.657L327.712,60.758L327.745,60.86L327.777,60.963L327.807,61.067L327.835,61.173L327.861,61.279L327.884,61.387L327.906,61.495L327.925,61.605L327.943,61.716L327.958,61.827L327.971,61.94L327.981,62.053L327.989,62.167L327.995,62.282L327.999,62.398L328,62.514L328,92.486L327.999,92.602L327.995,92.718L327.989,92.833L327.981,92.947L327.971,93.06L327.958,93.173L327.943,93.284L327.925,93.395L327.906,93.505L327.884,93.613L327.861,93.721L327.835,93.827L327.807,93.933L327.777,94.037L327.745,94.14L327.712,94.242L327.676,94.343L327.638,94.442L327.598,94.54L327.557,94.637L327.514,94.732L327.469,94.826L327.422,94.918L327.373,95.009L327.323,95.098L327.271,95.186L327.217,95.272L327.162,95.356L327.105,95.439L327.047,95.52L326.987,95.6L326.925,95.677L326.862,95.753L326.798,95.827L326.732,95.899L326.665,95.969L326.596,96.037L326.526,96.103L326.455,96.167L326.382,96.229L326.308,96.288L326.233,96.346L326.157,96.402L326.08,96.455L326.001,96.506L325.922,96.555L325.841,96.601L325.759,96.645L325.676,96.687L325.593,96.726L325.508,96.763L325.422,96.797L325.336,96.829L325.248,96.858L325.16,96.884L325.071,96.908L324.981,96.929L324.89,96.948L324.799,96.964L324.707,96.977L324.614,96.987L324.521,96.994L324.427,96.999L324.332,97L292.668,97L292.573,96.999L292.479,96.994L292.386,96.987L292.293,96.977L292.201,96.964L292.11,96.948L292.019,96.929L291.929,96.908L291.84,96.884L291.752,96.858L291.664,96.829L291.578,96.797L291.492,96.763L291.407,96.726L291.324,96.687L291.241,96.645L291.159,96.601L291.078,96.555L290.999,96.506L290.92,96.455L290.843,96.402L290.767,96.346L290.692,96.288L290.618,96.229L290.545,96.167L290.474,96.103L290.404,96.037L290.335,95.969L290.268,95.899L290.202,95.827L290.138,95.753L290.075,95.677L290.013,95.6L289.953,95.52L289.895,95.439L289.838,95.356L289.783,95.272L289.729,95.186L289.677,95.098L289.627,95.009L289.578,94.918L289.531,94.826L289.486,94.732L289.443,94.637L289.402,94.54L289.362,94.442L289.324,94.343L289.288,94.242L289.255,94.14L289.223,94.037L289.193,93.933L289.165,93.827L289.139,93.721L289.116,93.613L289.094,93.505L289.075,93.395L289.057,93.284L289.042,93.173L289.029,93.06L289.019,92.947L289.011,92.833L289.005,92.718L289.001,92.602L289,92.486L289,62.514L289.001,62.398L289.005,62.282L289.011,62.167L289.019,62.053L289.029,61.94L289.042,61.827L289.057,61.716L289.075,61.605L289.094,61.495L289.116,61.387L289.139,61.279L289.165,61.173L289.193,61.067L289.223,60.963L289.255,60.86L289.288,60.758L289.324,60.657L289.362,60.558L289.402,60.46L289.443,60.363L289.486,60.268L289.531,60.174L289.578,60.082L289.627,59.991L289.677,59.902L289.729,59.814L289.783,59.728L289.838,59.644L289.895,59.561L289.953,59.48L290.013,59.4L290.075,59.323L290.138,59.247L290.202,59.173L290.268,59.101L290.335,59.031L290.404,58.963L290.474,58.897L290.545,58.833L290.618,58.771L290.692,58.712L290.767,58.654L290.843,58.598L290.92,58.545L290.999,58.494L291.078,58.445L291.159,58.399L291.241,58.355L291.324,58.313L291.407,58.274L291.492,58.237L291.578,58.203L291.664,58.171L291.752,58.142L291.84,58.116L291.929,58.092L292.019,58.071L292.11,58.052L292.201,58.036L292.293,58.023L292.386,58.013L292.479,58.006L292.573,58.001L292.668,58L324.332,58L324.427,58.001ZM292.683,61L292.635,61.001L292.603,61.002L292.571,61.005L292.54,61.008L292.509,61.013L292.478,61.018L292.448,61.024L292.418,61.031L292.389,61.039L292.36,61.048L292.331,61.057L292.302,61.068L292.274,61.079L292.246,61.091L292.218,61.104L292.191,61.118L292.164,61.133L292.137,61.148L292.11,61.164L292.084,61.181L292.058,61.199L292.033,61.218L292.008,61.237L291.983,61.257L291.958,61.278L291.934,61.3L291.91,61.322L291.887,61.345L291.864,61.369L291.842,61.393L291.82,61.419L291.798,61.444L291.778,61.471L291.757,61.498L291.737,61.525L291.718,61.553L291.699,61.582L291.681,61.611L291.664,61.641L291.647,61.671L291.63,61.702L291.614,61.733L291.599,61.764L291.585,61.796L291.571,61.828L291.558,61.861L291.545,61.894L291.533,61.927L291.522,61.961L291.512,61.995L291.502,62.03L291.493,62.064L291.484,62.1L291.476,62.135L291.469,62.171L291.463,62.207L291.457,62.244L291.452,62.281L291.448,62.318L291.444,62.356L291.441,62.395L291.439,62.434L291.438,62.474L291.438,62.533L291.438,92.467L291.438,92.526L291.439,92.566L291.441,92.605L291.444,92.644L291.448,92.682L291.452,92.719L291.457,92.756L291.463,92.793L291.469,92.829L291.476,92.865L291.484,92.9L291.493,92.936L291.502,92.97L291.512,93.005L291.522,93.039L291.533,93.073L291.545,93.106L291.558,93.139L291.571,93.172L291.585,93.204L291.599,93.236L291.614,93.267L291.63,93.298L291.647,93.329L291.664,93.359L291.681,93.389L291.699,93.418L291.718,93.447L291.737,93.475L291.757,93.502L291.778,93.529L291.798,93.556L291.82,93.581L291.842,93.607L291.864,93.631L291.887,93.655L291.91,93.678L291.934,93.7L291.958,93.722L291.983,93.743L292.008,93.763L292.033,93.782L292.058,93.801L292.084,93.819L292.11,93.836L292.137,93.852L292.164,93.867L292.191,93.882L292.218,93.896L292.246,93.909L292.274,93.921L292.302,93.932L292.331,93.943L292.36,93.952L292.389,93.961L292.418,93.969L292.448,93.976L292.478,93.982L292.509,93.987L292.54,93.992L292.571,93.995L292.603,93.998L292.635,93.999L292.683,94L324.317,94L324.365,93.999L324.397,93.998L324.429,93.995L324.46,93.992L324.491,93.987L324.522,93.982L324.552,93.976L324.582,93.969L324.611,93.961L324.64,93.952L324.669,93.943L324.698,93.932L324.726,93.921L324.754,93.909L324.782,93.896L324.809,93.882L324.836,93.867L324.863,93.852L324.889,93.836L324.916,93.819L324.942,93.801L324.967,93.782L324.992,93.763L325.017,93.743L325.042,93.722L325.066,93.7L325.09,93.678L325.113,93.655L325.136,93.631L325.158,93.607L325.18,93.581L325.201,93.556L325.222,93.529L325.243,93.502L325.263,93.475L325.282,93.447L325.301,93.418L325.319,93.389L325.337,93.359L325.353,93.329L325.37,93.299L325.386,93.267L325.401,93.236L325.415,93.204L325.429,93.172L325.442,93.139L325.455,93.106L325.467,93.073L325.478,93.039L325.488,93.005L325.498,92.97L325.508,92.936L325.516,92.901L325.524,92.865L325.531,92.829L325.537,92.793L325.543,92.756L325.548,92.719L325.552,92.682L325.556,92.643L325.559,92.605L325.561,92.566L325.562,92.526L325.563,92.467L325.563,62.533L325.562,62.474L325.561,62.434L325.559,62.395L325.556,62.357L325.552,62.318L325.548,62.281L325.543,62.244L325.537,62.207L325.531,62.171L325.524,62.135L325.516,62.099L325.508,62.065L325.498,62.03L325.488,61.995L325.478,61.961L325.467,61.927L325.455,61.894L325.442,61.861L325.429,61.828L325.415,61.796L325.401,61.764L325.386,61.733L325.37,61.701L325.354,61.671L325.337,61.641L325.319,61.611L325.301,61.582L325.282,61.553L325.263,61.525L325.243,61.498L325.222,61.471L325.201,61.444L325.18,61.419L325.158,61.393L325.136,61.369L325.113,61.345L325.09,61.322L325.066,61.3L325.042,61.278L325.017,61.257L324.992,61.237L324.967,61.218L324.942,61.199L324.916,61.181L324.889,61.164L324.863,61.148L324.836,61.133L324.809,61.118L324.782,61.104L324.754,61.091L324.726,61.079L324.698,61.068L324.669,61.057L324.64,61.048L324.611,61.039L324.582,61.031L324.552,61.024L324.522,61.018L324.491,61.013L324.46,61.008L324.429,61.005L324.397,61.002L324.365,61.001L324.317,61L292.683,61Z" style="fill:rgb(165,204,229);"/>
            </g>
            <g transform="matrix(0.869565,0,0,1,71.5217,-17)">
                <rect x="257" y="93" width="23" height="3" style="fill:rgb(165,204,229);"/>
            </g>
            <g transform="matrix(0.130435,0,0,1,287.478,-24)">
                <rect x="257" y="93" width="23" height="3" style="fill:rgb(165,204,229);"/>
            </g>
            <g transform="matrix(0.130435,0,0,1,293.478,-24)">
                <rect x="257" y="93" width="23" height="3" style="fill:rgb(165,204,229);"/>
            </g>
            <g transform="matrix(0.130435,0,0,1,281.478,-24)">
                <rect x="257" y="93" width="23" height="3" style="fill:rgb(165,204,229);"/>
            </g>
            <g transform="matrix(1.47826,0,0,1,-84.913,-8)">
                <rect x="257" y="93" width="23" height="3" style="fill:rgb(165,204,229);"/>
            </g>
            <g transform="matrix(0.381118,0,0,1,197.053,0)">
                <rect x="257" y="93" width="23" height="3" style="fill:rgb(165,204,229);"/>
            </g>
            <g transform="matrix(0.835807,0.549023,-0.549023,0.835807,82.6557,-169.481)">
                <g transform="matrix(0.6,0,-5.55112e-17,-0.666667,116.638,153.65)">
                    <path d="M350.896,79.849C351.147,79.248 351.786,78.849 352.5,78.849C353.214,78.849 353.853,79.248 354.104,79.849C356.307,85.137 360,94 360,94L345,94C345,94 348.693,85.137 350.896,79.849Z" style="fill:rgb(158,159,163);"/>
                    <path d="M360,94L354.104,79.849L354.079,79.794L354.052,79.739L354.023,79.686L353.992,79.634L353.959,79.583L353.924,79.534L353.887,79.486L353.848,79.439L353.807,79.394L353.765,79.351L353.72,79.309L353.675,79.269L353.627,79.23L353.578,79.193L353.528,79.157L353.476,79.124L353.422,79.092L353.368,79.062L353.312,79.033L353.255,79.007L353.197,78.982L353.138,78.96L353.078,78.939L353.017,78.921L352.955,78.904L352.892,78.89L352.828,78.878L352.764,78.867L352.699,78.859L352.633,78.854L352.567,78.85L352.5,78.849L352.433,78.85L352.367,78.854L352.301,78.859L352.236,78.867L352.172,78.878L352.108,78.89L352.045,78.904L351.983,78.921L351.922,78.939L351.862,78.96L351.803,78.982L351.745,79.007L351.688,79.033L351.632,79.062L351.578,79.092L351.524,79.124L351.472,79.157L351.422,79.193L351.373,79.23L351.325,79.269L351.28,79.309L351.235,79.351L351.193,79.394L351.152,79.439L351.113,79.486L351.076,79.534L351.041,79.583L351.008,79.634L350.977,79.686L350.948,79.739L350.921,79.794L350.896,79.849L345,94L360,94ZM352.5,88.816L352.785,89.5L352.215,89.5L352.5,88.816Z" style="fill:rgb(158,159,163);"/>
                </g>
                <g transform="matrix(0.6,0,0,1.125,116.638,-21.5)">
                    <rect x="345" y="76" width="15" height="24" style="fill:rgb(254,255,254);"/>
                    <path d="M360,76L360,100L345,100L345,76L360,76ZM350,97.333L355,97.333L355,78.667L350,78.667L350,97.333Z" style="fill:rgb(224,214,169);"/>
                </g>
                <g transform="matrix(6.74655e-17,-1.10179,1.21327,-1.64042e-16,251.348,425.389)">
                    <rect x="328" y="59.582" width="5.446" height="7.418" style="fill:rgb(222,98,103);"/>
                </g>
            </g>
        </g>
    </g>
</svg>
