<?xml version="1.0" encoding="UTF-8" standalone="no"?><!DOCTYPE svg PUBLIC "-//W3C//DTD SVG 1.1//EN" "http://www.w3.org/Graphics/SVG/1.1/DTD/svg11.dtd"><svg width="100%" height="100%" viewBox="0 0 72 72" version="1.1" xmlns="http://www.w3.org/2000/svg" xmlns:xlink="http://www.w3.org/1999/xlink" xml:space="preserve" xmlns:serif="http://www.serif.com/" style="fill-rule:evenodd;clip-rule:evenodd;stroke-linecap:round;stroke-linejoin:round;stroke-miterlimit:1.5;"><path d="M10.713,50.873c2.278,2.404 2.177,6.204 -0.227,8.483c-2.403,2.278 -6.204,2.176 -8.482,-0.227c-2.278,-2.403 -2.176,-6.204 0.227,-8.482c2.403,-2.278 6.204,-2.177 8.482,0.226Z" style="fill:#a3b74a;"/><path d="M27.807,36.498c3.038,3.204 2.903,8.272 -0.302,11.309c-3.204,3.038 -8.272,2.903 -11.309,-0.302c-3.038,-3.204 -2.903,-8.272 0.302,-11.309c3.204,-3.038 8.272,-2.903 11.309,0.302Z" style="fill:#a5cce5;"/><path d="M53.804,19.995c3.038,3.204 2.903,8.272 -0.302,11.309c-3.204,3.038 -8.272,2.903 -11.309,-0.302c-3.038,-3.204 -2.903,-8.272 0.302,-11.309c3.204,-3.038 8.272,-2.903 11.309,0.302Z" style="fill:#a5cce5;"/><path d="M6.955,55c-0.001,0.043 22.973,7.293 30.145,-3.648c7.53,-11.488 -12.185,-23.685 -4.748,-34.08c7.74,-10.821 37.398,-6.171 37.549,-6.351" style="fill:none;stroke:#a3b74a;stroke-width:3px;"/><path d="M64.397,5.115l5.504,5.806l-5.806,5.504" style="fill:none;stroke:#a3b74a;stroke-width:3px;"/></svg>