<?xml version="1.0" encoding="UTF-8" standalone="no"?><!DOCTYPE svg PUBLIC "-//W3C//DTD SVG 1.1//EN" "http://www.w3.org/Graphics/SVG/1.1/DTD/svg11.dtd"><svg width="100%" height="100%" viewBox="0 0 72 72" version="1.1" xmlns="http://www.w3.org/2000/svg" xmlns:xlink="http://www.w3.org/1999/xlink" xml:space="preserve" xmlns:serif="http://www.serif.com/" style="fill-rule:evenodd;clip-rule:evenodd;stroke-linejoin:round;stroke-miterlimit:1.41421;"><g id="technical-knowledge" serif:id="technical knowledge"><path d="M72,16.123c0,-2.275 -1.848,-4.123 -4.123,-4.123l-63.754,0c-2.275,0 -4.123,1.848 -4.123,4.123l0,45.754c0,2.275 1.848,4.123 4.123,4.123l63.754,0c2.275,0 4.123,-1.848 4.123,-4.123l0,-45.754Z" style="fill:#a5cce5;"/><path d="M68,10.416c0,-1.334 -1.082,-2.416 -2.416,-2.416l-59.168,0c-1.334,0 -2.416,1.082 -2.416,2.416l0,49.168c0,1.334 1.082,2.416 2.416,2.416l59.168,0c1.334,0 2.416,-1.082 2.416,-2.416l0,-49.168Z" style="fill:#fefffe;"/><path d="M48.831,49.068l-4.831,0l0,-4l0.831,0c1.749,0 3.169,-1.42 3.169,-3.169l0,-4.831l2,-2l-2,-2l0,-4.83c0,-1.749 -1.42,-3.169 -3.169,-3.17l-0.831,0l0,-4l4.831,0c1.749,0.001 3.169,1.421 3.169,3.17l0,6.83l4,4l-4,4l0,6.831c0,1.749 -1.42,3.169 -3.169,3.169Z" style="fill:#a3b74a;"/><path d="M23.169,49.068l4.831,0l0,-4l-0.831,0c-1.749,0 -3.169,-1.42 -3.169,-3.169l0,-4.831l-2,-2l2,-2l0,-4.83c0,-1.749 1.42,-3.169 3.169,-3.17l0.831,0l0,-4l-4.831,0c-1.749,0.001 -3.169,1.421 -3.169,3.17l0,6.83l-4,4l4,4l0,6.831c0,1.749 1.42,3.169 3.169,3.169Z" style="fill:#a3b74a;"/><rect x="8" y="10" width="4" height="44" style="fill:#a5cce5;"/><rect x="60" y="10" width="4" height="44" style="fill:#a5cce5;"/><path d="M64,56.5c-10.446,0 -20.117,2.09 -28,5.637c-7.883,-3.547 -17.554,-5.637 -28,-5.637l0,-4c10.446,0 20.117,2.09 28,5.637c7.883,-3.547 17.554,-5.637 28,-5.637l0,4Z" style="fill:#a5cce5;"/><path d="M64,12c-10.446,0 -20.117,2.09 -28,5.637c-7.883,-3.547 -17.554,-5.637 -28,-5.637l0,-4c10.446,0 20.117,2.09 28,5.637c7.883,-3.547 17.554,-5.637 28,-5.637l0,4Z" style="fill:#a5cce5;"/><path d="M64,60.5c-10.446,0 -20.117,2.09 -28,5.637c-7.883,-3.547 -17.554,-5.637 -28,-5.637l0,-4c10.446,0 20.117,2.09 28,5.637c7.883,-3.547 17.554,-5.637 28,-5.637l0,4Z" style="fill:#fefffe;"/></g></svg>